<svg id="Layer_1" xmlns="http://www.w3.org/2000/svg" xmlns:xlink="http://www.w3.org/1999/xlink" viewBox="0 0 500 500" data-imageid="construction-site-59" imageName="Construction Site" class="illustrations_image" style="width: 213px;"><defs><style>.cls-1_construction-site-59{fill:url(#linear-gradient);}.cls-1_construction-site-59,.cls-2_construction-site-59,.cls-3_construction-site-59,.cls-4_construction-site-59,.cls-5_construction-site-59,.cls-6_construction-site-59,.cls-7_construction-site-59,.cls-8_construction-site-59,.cls-9_construction-site-59,.cls-10_construction-site-59,.cls-11_construction-site-59,.cls-12_construction-site-59,.cls-13_construction-site-59,.cls-14_construction-site-59,.cls-15_construction-site-59,.cls-16_construction-site-59,.cls-17_construction-site-59,.cls-18_construction-site-59,.cls-19_construction-site-59,.cls-20_construction-site-59,.cls-21_construction-site-59,.cls-22_construction-site-59,.cls-23_construction-site-59,.cls-24_construction-site-59,.cls-25_construction-site-59,.cls-26_construction-site-59,.cls-27_construction-site-59,.cls-28_construction-site-59,.cls-29_construction-site-59,.cls-30_construction-site-59,.cls-31_construction-site-59,.cls-32_construction-site-59,.cls-33_construction-site-59,.cls-34_construction-site-59,.cls-35_construction-site-59,.cls-36_construction-site-59,.cls-37_construction-site-59,.cls-38_construction-site-59,.cls-39_construction-site-59,.cls-40_construction-site-59,.cls-41_construction-site-59,.cls-42_construction-site-59,.cls-43_construction-site-59,.cls-44_construction-site-59,.cls-45_construction-site-59{stroke-width:0px;}.cls-2_construction-site-59{fill:url(#linear-gradient-38-construction-site-59);}.cls-3_construction-site-59{fill:url(#linear-gradient-33-construction-site-59);}.cls-4_construction-site-59{fill:url(#linear-gradient-29-construction-site-59);}.cls-5_construction-site-59{fill:url(#linear-gradient-32-construction-site-59);}.cls-6_construction-site-59{fill:url(#linear-gradient-30-construction-site-59);}.cls-7_construction-site-59{fill:url(#linear-gradient-31-construction-site-59);}.cls-8_construction-site-59{fill:url(#linear-gradient-36-construction-site-59);}.cls-9_construction-site-59{fill:url(#linear-gradient-39-construction-site-59);}.cls-10_construction-site-59{fill:url(#linear-gradient-34-construction-site-59);}.cls-11_construction-site-59{fill:url(#linear-gradient-37-construction-site-59);}.cls-12_construction-site-59{fill:url(#linear-gradient-35-construction-site-59);}.cls-13_construction-site-59{fill:url(#linear-gradient-28-construction-site-59);}.cls-14_construction-site-59{fill:url(#linear-gradient-25-construction-site-59);}.cls-15_construction-site-59{fill:url(#linear-gradient-11-construction-site-59);}.cls-16_construction-site-59{fill:url(#linear-gradient-12-construction-site-59);}.cls-17_construction-site-59{fill:url(#linear-gradient-13-construction-site-59);}.cls-18_construction-site-59{fill:url(#linear-gradient-10-construction-site-59);}.cls-19_construction-site-59{fill:url(#linear-gradient-17-construction-site-59);}.cls-20_construction-site-59{fill:url(#linear-gradient-16-construction-site-59);}.cls-21_construction-site-59{fill:url(#linear-gradient-19-construction-site-59);}.cls-22_construction-site-59{fill:url(#linear-gradient-15-construction-site-59);}.cls-23_construction-site-59{fill:url(#linear-gradient-23-construction-site-59);}.cls-24_construction-site-59{fill:url(#linear-gradient-21-construction-site-59);}.cls-25_construction-site-59{fill:url(#linear-gradient-18-construction-site-59);}.cls-26_construction-site-59{fill:url(#linear-gradient-14-construction-site-59);}.cls-27_construction-site-59{fill:url(#linear-gradient-22-construction-site-59);}.cls-28_construction-site-59{fill:url(#linear-gradient-20-construction-site-59);}.cls-29_construction-site-59{fill:url(#linear-gradient-27-construction-site-59);}.cls-30_construction-site-59{fill:url(#linear-gradient-24-construction-site-59);}.cls-31_construction-site-59{fill:url(#linear-gradient-26-construction-site-59);}.cls-32_construction-site-59{fill:url(#linear-gradient-40-construction-site-59);}.cls-33_construction-site-59{fill:url(#linear-gradient-41-construction-site-59);}.cls-46_construction-site-59{opacity:.24;}.cls-34_construction-site-59{fill:url(#linear-gradient-4-construction-site-59);}.cls-35_construction-site-59{fill:url(#linear-gradient-2-construction-site-59);}.cls-36_construction-site-59{fill:url(#linear-gradient-3-construction-site-59);}.cls-37_construction-site-59{fill:url(#linear-gradient-8-construction-site-59);}.cls-38_construction-site-59{fill:url(#linear-gradient-9-construction-site-59);}.cls-39_construction-site-59{fill:url(#linear-gradient-7-construction-site-59);}.cls-40_construction-site-59{fill:url(#linear-gradient-5-construction-site-59);}.cls-41_construction-site-59{fill:url(#linear-gradient-6-construction-site-59);}.cls-42_construction-site-59{fill:#231f20;}.cls-43_construction-site-59{fill:#ffb4a3;}.cls-44_construction-site-59,.cls-45_construction-site-59{fill:#68e1fd;}.cls-45_construction-site-59{isolation:isolate;opacity:.25;}</style><linearGradient id="linear-gradient-construction-site-59" x1="-3398.95" y1="-6314.66" x2="-3522.29" y2="-6310.54" gradientTransform="translate(3823.04 6580.54)" gradientUnits="userSpaceOnUse"><stop offset="0" stop-color="#231f20" stop-opacity="0"/><stop offset="1" stop-color="#231f20"/></linearGradient><linearGradient id="linear-gradient-2-construction-site-59" x1="-3386.88" y1="-6316.06" x2="-3391.6" y2="-6232.3" gradientTransform="translate(3823.04 6514.83)" xlink:href="#linear-gradient-construction-site-59"/><linearGradient id="linear-gradient-3-construction-site-59" x1="-3370.66" y1="-6313.83" x2="-3444.51" y2="-6230.39" gradientTransform="translate(3823.04 6514.83)" xlink:href="#linear-gradient-construction-site-59"/><linearGradient id="linear-gradient-4-construction-site-59" x1="-3353.93" y1="-6291.98" x2="-3395.28" y2="-6290.46" xlink:href="#linear-gradient-construction-site-59"/><linearGradient id="linear-gradient-5-construction-site-59" x1="-3421.21" y1="-6285.21" x2="-3363.95" y2="-6285.21" xlink:href="#linear-gradient-construction-site-59"/><linearGradient id="linear-gradient-6-construction-site-59" x1="-3575.73" y1="-6316.55" x2="-3616.94" y2="-6315.03" xlink:href="#linear-gradient-construction-site-59"/><linearGradient id="linear-gradient-7-construction-site-59" x1="-3498.83" y1="-6283.49" x2="-3533.6" y2="-6351.38" xlink:href="#linear-gradient-construction-site-59"/><linearGradient id="linear-gradient-8-construction-site-59" x1="-3503.35" y1="-6310.08" x2="-3504.43" y2="-6296.54" xlink:href="#linear-gradient-construction-site-59"/><linearGradient id="linear-gradient-9-construction-site-59" x1="-3505.79" y1="-6387.99" x2="-3505.79" y2="-6342.44" xlink:href="#linear-gradient-construction-site-59"/><linearGradient id="linear-gradient-10-construction-site-59" x1="-3505.79" y1="-6387.54" x2="-3505.79" y2="-6335.66" xlink:href="#linear-gradient-construction-site-59"/><linearGradient id="linear-gradient-11-construction-site-59" x1="-3552.14" y1="-6370.47" x2="-3556.81" y2="-6342.66" xlink:href="#linear-gradient-construction-site-59"/><linearGradient id="linear-gradient-12-construction-site-59" x1="-3587.12" y1="-6316.24" x2="-3562.36" y2="-6316.52" xlink:href="#linear-gradient-construction-site-59"/><linearGradient id="linear-gradient-13-construction-site-59" x1="-3440.57" y1="-6287.56" x2="-3439.95" y2="-6232.67" xlink:href="#linear-gradient-construction-site-59"/><linearGradient id="linear-gradient-14-construction-site-59" x1="-3550.15" y1="-6304.74" x2="-3554.71" y2="-6248.01" xlink:href="#linear-gradient-construction-site-59"/><linearGradient id="linear-gradient-15-construction-site-59" x1="-3550.26" y1="-6302.43" x2="-3554.52" y2="-6249.31" xlink:href="#linear-gradient-construction-site-59"/><linearGradient id="linear-gradient-16-construction-site-59" x1="-3439.94" y1="-6364.65" x2="-3441.85" y2="-6296.73" xlink:href="#linear-gradient-construction-site-59"/><linearGradient id="linear-gradient-17-construction-site-59" x1="-3439.88" y1="-6361.63" x2="-3442.02" y2="-6285.63" xlink:href="#linear-gradient-construction-site-59"/><linearGradient id="linear-gradient-18-construction-site-59" x1="-3557.12" y1="-6304.32" x2="-3559.05" y2="-6280.24" xlink:href="#linear-gradient-construction-site-59"/><linearGradient id="linear-gradient-19-construction-site-59" x1="-3514.09" y1="-6292.19" x2="-3555.44" y2="-6290.67" xlink:href="#linear-gradient-construction-site-59"/><linearGradient id="linear-gradient-20-construction-site-59" x1="-3554.57" y1="-6368.94" x2="-3561.77" y2="-6317.8" xlink:href="#linear-gradient-construction-site-59"/><linearGradient id="linear-gradient-21-construction-site-59" x1="-3398.95" y1="-6414.04" x2="-3522.29" y2="-6409.93" xlink:href="#linear-gradient-construction-site-59"/><linearGradient id="linear-gradient-22-construction-site-59" x1="-3386.88" y1="-6415.45" x2="-3391.6" y2="-6331.69" gradientTransform="translate(3823.04 6514.83)" xlink:href="#linear-gradient-construction-site-59"/><linearGradient id="linear-gradient-23-construction-site-59" x1="-3370.64" y1="-6413.21" x2="-3444.5" y2="-6329.76" gradientTransform="translate(3823.04 6514.83)" xlink:href="#linear-gradient-construction-site-59"/><linearGradient id="linear-gradient-24-construction-site-59" x1="-3353.93" y1="-6391.36" x2="-3395.28" y2="-6389.84" xlink:href="#linear-gradient-construction-site-59"/><linearGradient id="linear-gradient-25-construction-site-59" x1="-3575.73" y1="-6415.93" x2="-3616.94" y2="-6414.41" xlink:href="#linear-gradient-construction-site-59"/><linearGradient id="linear-gradient-26-construction-site-59" x1="-3505.79" y1="-6487.37" x2="-3505.79" y2="-6441.83" xlink:href="#linear-gradient-construction-site-59"/><linearGradient id="linear-gradient-27-construction-site-59" x1="-3505.79" y1="-6486.92" x2="-3505.79" y2="-6435.05" xlink:href="#linear-gradient-construction-site-59"/><linearGradient id="linear-gradient-28-construction-site-59" x1="-3552.14" y1="-6469.85" x2="-3556.81" y2="-6442.04" xlink:href="#linear-gradient-construction-site-59"/><linearGradient id="linear-gradient-29-construction-site-59" x1="-3587.12" y1="-6415.62" x2="-3562.36" y2="-6415.9" xlink:href="#linear-gradient-construction-site-59"/><linearGradient id="linear-gradient-30-construction-site-59" x1="-3439.94" y1="-6464.04" x2="-3441.85" y2="-6396.11" xlink:href="#linear-gradient-construction-site-59"/><linearGradient id="linear-gradient-31-construction-site-59" x1="-3439.88" y1="-6461.02" x2="-3442.02" y2="-6385.02" xlink:href="#linear-gradient-construction-site-59"/><linearGradient id="linear-gradient-32-construction-site-59" x1="-3514.09" y1="-6391.57" x2="-3555.44" y2="-6390.05" xlink:href="#linear-gradient-construction-site-59"/><linearGradient id="linear-gradient-33-construction-site-59" x1="-3554.57" y1="-6468.33" x2="-3561.77" y2="-6417.18" xlink:href="#linear-gradient-construction-site-59"/><linearGradient id="linear-gradient-34-construction-site-59" x1="-3697.24" y1="-6367.09" x2="-3693.75" y2="-6361.58" xlink:href="#linear-gradient-construction-site-59"/><linearGradient id="linear-gradient-35-construction-site-59" x1="-3704.77" y1="-6316.4" x2="-3704.07" y2="-6273.03" gradientTransform="translate(3823.04 6514.83)" xlink:href="#linear-gradient-construction-site-59"/><linearGradient id="linear-gradient-36-construction-site-59" x1="-3709.11" y1="-6301.13" x2="-3708.71" y2="-6276.65" gradientTransform="translate(3823.04 6514.83)" xlink:href="#linear-gradient-construction-site-59"/><linearGradient id="linear-gradient-37-construction-site-59" x1="-3697.13" y1="-6221.71" x2="-3784.84" y2="-6208.64" gradientTransform="translate(3823.04 6514.83)" xlink:href="#linear-gradient-construction-site-59"/><linearGradient id="linear-gradient-38-construction-site-59" x1="-3706.94" y1="-6264.92" x2="-3696.7" y2="-6218.32" gradientTransform="translate(3823.04 6514.83)" xlink:href="#linear-gradient-construction-site-59"/><linearGradient id="linear-gradient-39-construction-site-59" x1="-3709.71" y1="-6274.39" x2="-3706.83" y2="-6244.62" gradientTransform="translate(3823.04 6514.83)" xlink:href="#linear-gradient-construction-site-59"/><linearGradient id="linear-gradient-40-construction-site-59" x1="-3709.71" y1="-6268.55" x2="-3706.82" y2="-6238.79" gradientTransform="translate(3823.04 6514.83)" xlink:href="#linear-gradient-construction-site-59"/><linearGradient id="linear-gradient-41-construction-site-59" x1="-3670.97" y1="-6258.1" x2="-3667.26" y2="-6183.06" gradientTransform="translate(3823.04 6514.83)" gradientUnits="userSpaceOnUse"><stop offset="0" stop-color="#000" stop-opacity="0"/><stop offset=".49" stop-color="#000" stop-opacity=".49"/><stop offset=".97" stop-color="#000"/></linearGradient></defs><path id="background_construction-site-59" class="cls-45_construction-site-59 targetColor" d="M113.34,189.22c-33.24,6.49-104.82,22.34-80.51,101.43,3.39,11.05,25.28,48.81,27.71,60.11,2.7,12.62-2.91,25.93-.17,38.55,4.94,22.68,32.38,31.11,55.33,34.63,26.54,4.07,53.9,7.14,80.02,1.06,14.41-3.35,28.06-9.39,42.4-13.04,58.85-14.83,122.93,12.12,180.76-6.2,17.12-5.41,34.23-16.2,39.63-33.33,3.48-11.15,1.5-23.19,1.44-34.89-.17-29.72,3.68-69.24,13.11-97.42s52.88-139.1-38.25-157.27c-132.4-26.4-90.54,61.29-321.46,106.37h-.01Z" style="fill: rgb(0, 49, 83);"/><path id="floor_construction-site-59" class="cls-45_construction-site-59 targetColor" d="M111.68,389.44c-21.29,4.6-43.8,10.68-58.25,26.95-2.98,3.35-5.66,7.36-5.73,11.84-.18,10.66,12.99,15.65,23.56,17.08,32.64,4.35,65.72,2.98,98.62,1.63,20.81-.87,41.68-1.74,62.27-4.79,40.46-6.09,80.59-20.78,121.31-16.34,13.41,1.46,26.52,4.99,39.94,6.34,21.57,2.13,43.32-1.41,63.1-10.26,6.95-3.13,14.3-7.72,16.13-15.14,1.83-7.42-2.66-15.01-8.83-19.31-6.17-4.3-13.77-5.95-21.13-7.5-17.73-3.73-33.04-10.35-51.2-11.5-22.97-1.44-45.99-2.11-69.04-2-45.64.23-91.22,3.51-136.43,9.82-24.93,3.48-49.7,7.87-74.31,13.18h-.01Z" style="fill: rgb(0, 49, 83);"/><g id="shadow_construction-site-59" class="cls-46_construction-site-59"><path class="cls-42_construction-site-59" d="M93.43,439.31c12.75,1.16,25.56,1.66,38.36,1.74,11.08.05,22.51-.29,32.58-4.89,5.52-2.52,10.5-6.28,16.3-8.07,5.46-1.69,11.3-1.54,16.94-2.3,5.64-.76,11.61-2.74,14.92-7.39l-21.63-7.19c-2.74-1-5.56-1.76-8.43-2.26-3.67-.4-7.37-.36-11.03.11-13.88,1.34-27.66,3.56-41.25,6.64-7.62,1.74-11.57,6.26-18.18,9.16-5.32,2.34-8.51.5-13.91.35-12.56-.34-21.53,12.54-4.67,14.08v.02Z"/><path class="cls-42_construction-site-59" d="M212.24,382.74c-3.18.05-7.46,1.04-7.42,4.23,11.48,3.56,23.83-.37,35.84.05,16.15.57,30.86,8.96,44.82,17.13-5.5-.13-10.65,2.71-13.46,7.44,31.46,3.32,62.98-4.7,94.6-5.22,33.1-.5,66.27,7.27,99.11,3.19-.57-2.67-3.79-3.69-6.49-4.09-13.81-2.09-27.89-1.14-41.82-2.03-13.94-.9-28.37-3.92-39.23-12.69,11.28-2.68,22.18-6.77,32.44-12.17-6.52-3.07-14.13-2.13-21.28-1.27-47.48,5.74-95.52,5.09-142.83-1.91-1.63,3.26,3.35,5.69,6.95,5.97l79.28,6.29c9.08.72,18.91,1.74,25.59,7.95-35.06,6.73-83.24-.23-116.27-13.86-5.42-2.24,3.39-8.56-2.46-7.95-6.79.71-19.23,8.79-27.39,8.94h.02Z"/></g><g id="construction_construction-site-59"><rect class="cls-44_construction-site-59 targetColor" x="391.75" y="155.83" width="15.41" height="221.52" style="fill: rgb(0, 49, 83);"/><rect class="cls-1_construction-site-59" x="398.29" y="155.83" width="8.87" height="221.52"/><path class="cls-44_construction-site-59 targetColor" d="M407.16,202.99c0-.49,55.4,18.93,55.4,18.93l1.32,19.03-57.94-20.97-.15-17h1.37Z" style="fill: rgb(0, 49, 83);"/><path class="cls-35_construction-site-59" d="M405.78,204.62c0-.49,56.78,19.95,56.78,19.95l1.32,15.57-57.94-20.97-.16-14.55h0Z"/><path class="cls-44_construction-site-59 targetColor" d="M402.82,206.78c0-.49,55.39,18.93,55.39,18.93l1.32,17.81-57.94-20.97-.17-15.81,1.41.04h0Z" style="fill: rgb(0, 49, 83);"/><path class="cls-36_construction-site-59" d="M401.44,207.99c0-.49,56.77,19.95,56.77,19.95l1.32,15.57-57.94-20.97-.15-14.55Z"/><rect class="cls-44_construction-site-59 targetColor" x="453.08" y="174.67" width="15.41" height="228.27" style="fill: rgb(0, 49, 83);"/><rect class="cls-34_construction-site-59" x="454.84" y="174.67" width="15.41" height="228.27"/><rect class="cls-44_construction-site-59 targetColor" x="459.23" y="174.67" width="2.17" height="228.27" style="fill: rgb(0, 49, 83);"/><polygon class="cls-44_construction-site-59 targetColor" points="459.35 295.1 459.35 297.96 459.09 310.66 401.83 291.47 401.73 291.43 402.47 276.46 459.35 295.1" style="fill: rgb(0, 49, 83);"/><polygon class="cls-40_construction-site-59" points="459.09 297.31 459.09 312.02 401.83 291.47 402.47 278.64 459.09 297.31"/><rect class="cls-44_construction-site-59 targetColor" x="231.31" y="151.12" width="15.41" height="226.23" style="fill: rgb(0, 49, 83);"/><rect class="cls-41_construction-site-59" x="233.07" y="151.12" width="15.41" height="226.23"/><rect class="cls-44_construction-site-59 targetColor" x="240.78" y="276.24" width="152.93" height="14.41" style="fill: rgb(0, 49, 83);"/><rect class="cls-39_construction-site-59" x="240.78" y="276.24" width="152.93" height="14.41"/><rect class="cls-37_construction-site-59" x="246.57" y="276.24" width="145.17" height="1.97"/><rect class="cls-44_construction-site-59 targetColor" x="240.78" y="202.21" width="152.93" height="14.41" style="fill: rgb(0, 49, 83);"/><rect class="cls-38_construction-site-59" x="240.78" y="202.21" width="152.93" height="14.41"/><rect class="cls-44_construction-site-59 targetColor" x="242.78" y="206.01" width="152.93" height="14.41" style="fill: rgb(0, 49, 83);"/><rect class="cls-18_construction-site-59" x="240.78" y="204.01" width="152.93" height="16.41"/><polygon class="cls-44_construction-site-59 targetColor" points="292.93 223.22 246.72 206.01 246.72 209.77 292.93 226.96 292.93 223.22" style="fill: rgb(0, 49, 83);"/><polygon class="cls-15_construction-site-59" points="292.93 223.22 246.72 206.01 246.72 209.77 292.93 226.96 292.93 223.22"/><rect class="cls-44_construction-site-59 targetColor" x="246.72" y="206.01" width="145.03" height="1.5" style="fill: rgb(0, 49, 83);"/><rect class="cls-44_construction-site-59 targetColor" x="246.72" y="201.2" width="145.03" height="1.5" style="fill: rgb(0, 49, 83);"/><rect class="cls-44_construction-site-59 targetColor" x="237.46" y="151.12" width="9.26" height="226.23" style="fill: rgb(0, 49, 83);"/><rect class="cls-16_construction-site-59" x="237.46" y="151.12" width="9.26" height="226.23"/><rect class="cls-44_construction-site-59 targetColor" x="306.16" y="298.94" width="152.93" height="14.41" style="fill: rgb(0, 49, 83);"/><rect class="cls-17_construction-site-59" x="306.16" y="300.93" width="152.93" height="12.41"/><polygon class="cls-44_construction-site-59 targetColor" points="237.46 294.09 305.11 314.8 305.06 297.55 237.46 276.79 237.46 294.09" style="fill: rgb(0, 49, 83);"/><polygon class="cls-26_construction-site-59" points="305.11 314.8 305.1 314.8 237.46 294.09 237.46 276.79 305.06 297.55 305.11 314.8"/><polygon class="cls-22_construction-site-59" points="305.1 314.8 237.46 294.09 237.46 278.86 305.06 299.62 305.1 314.8"/><rect class="cls-44_construction-site-59 targetColor" x="306.16" y="224.91" width="152.93" height="13.96" style="fill: rgb(0, 49, 83);"/><rect class="cls-20_construction-site-59" x="306.16" y="226.96" width="152.93" height="11.91"/><rect class="cls-44_construction-site-59 targetColor" x="306.16" y="229" width="152.93" height="15.96" style="fill: rgb(0, 49, 83);"/><rect class="cls-19_construction-site-59" x="306.16" y="231.05" width="152.93" height="13.84"/><polygon class="cls-25_construction-site-59" points="237.46 276.79 252.88 276.79 292.93 287.7 292.93 293.83 237.46 276.79"/><rect class="cls-44_construction-site-59 targetColor" x="237.46" y="151.12" width="2.17" height="226.23" style="fill: rgb(0, 49, 83);"/><rect class="cls-44_construction-site-59 targetColor" x="292.93" y="174.46" width="15.41" height="228.27" style="fill: rgb(0, 49, 83);"/><rect class="cls-21_construction-site-59" x="294.69" y="174.46" width="15.41" height="228.27"/><rect class="cls-44_construction-site-59 targetColor" x="299.08" y="174.46" width="2.17" height="228.27" style="fill: rgb(0, 49, 83);"/><polygon class="cls-44_construction-site-59 targetColor" points="239.63 207.12 292.93 226.96 292.93 244.89 239.63 221.75 239.63 207.12" style="fill: rgb(0, 49, 83);"/><polygon class="cls-28_construction-site-59" points="239.63 209.42 292.93 229.27 292.93 244.89 239.63 221.75 239.63 209.42"/><polygon class="cls-44_construction-site-59 targetColor" points="246.72 206.01 292.93 223.22 292.93 225.27 246.72 208.12 246.72 206.01" style="fill: rgb(0, 49, 83);"/><rect class="cls-44_construction-site-59 targetColor" x="391.75" y="56.45" width="15.41" height="135.46" style="fill: rgb(0, 49, 83);"/><rect class="cls-24_construction-site-59" x="398.29" y="56.45" width="8.87" height="221.52"/><path class="cls-44_construction-site-59 targetColor" d="M407.16,103.59c0-.48,55.4,18.93,55.4,18.93l1.32,19-57.94-20.97-.15-17,1.37.03h0Z" style="fill: rgb(0, 49, 83);"/><path class="cls-27_construction-site-59" d="M405.78,105.23c0-.48,56.78,20,56.78,20l1.32,15.54-57.97-20.96-.13-14.57h0Z"/><path class="cls-44_construction-site-59 targetColor" d="M402.82,107.39c0-.49,55.39,18.93,55.39,18.93l1.32,17.82-57.94-20.97-.15-15.78h1.38Z" style="fill: rgb(0, 49, 83);"/><path class="cls-23_construction-site-59" d="M401.44,108.61c0-.49,56.77,20,56.77,20l1.32,15.54-57.94-20.97-.15-14.56h0Z"/><rect class="cls-44_construction-site-59 targetColor" x="453.08" y="75.29" width="15.41" height="228.27" style="fill: rgb(0, 49, 83);"/><rect class="cls-30_construction-site-59" x="454.84" y="75.29" width="15.41" height="228.27"/><rect class="cls-44_construction-site-59 targetColor" x="459.23" y="75.29" width="2.17" height="228.27" style="fill: rgb(0, 49, 83);"/><rect class="cls-44_construction-site-59 targetColor" x="231.31" y="51.74" width="15.41" height="226.23" style="fill: rgb(0, 49, 83);"/><rect class="cls-14_construction-site-59" x="233.07" y="51.74" width="15.41" height="226.23"/><rect class="cls-44_construction-site-59 targetColor" x="240.78" y="102.83" width="152.93" height="14.41" style="fill: rgb(0, 49, 83);"/><rect class="cls-31_construction-site-59" x="240.78" y="102.83" width="152.93" height="14.41"/><rect class="cls-44_construction-site-59 targetColor" x="242.78" y="106.63" width="152.93" height="14.41" style="fill: rgb(0, 49, 83);"/><rect class="cls-29_construction-site-59" x="240.78" y="104.63" width="152.93" height="16.41"/><polygon class="cls-44_construction-site-59 targetColor" points="292.93 123.83 246.72 106.63 246.72 110.37 292.93 127.58 292.93 123.83" style="fill: rgb(0, 49, 83);"/><polygon class="cls-13_construction-site-59" points="292.93 123.83 246.72 106.63 246.72 110.37 292.93 127.58 292.93 123.83"/><rect class="cls-44_construction-site-59 targetColor" x="246.72" y="106.63" width="145.03" height="1.5" style="fill: rgb(0, 49, 83);"/><rect class="cls-44_construction-site-59 targetColor" x="246.72" y="101.82" width="145.03" height="1.5" style="fill: rgb(0, 49, 83);"/><rect class="cls-44_construction-site-59 targetColor" x="237.46" y="51.74" width="9.26" height="226.23" style="fill: rgb(0, 49, 83);"/><rect class="cls-4_construction-site-59" x="237.46" y="51.74" width="9.26" height="226.23"/><rect class="cls-44_construction-site-59 targetColor" x="306.16" y="125.53" width="152.93" height="13.96" style="fill: rgb(0, 49, 83);"/><rect class="cls-6_construction-site-59" x="306.16" y="127.58" width="152.93" height="11.91"/><rect class="cls-44_construction-site-59 targetColor" x="306.16" y="129.61" width="152.93" height="15.96" style="fill: rgb(0, 49, 83);"/><rect class="cls-7_construction-site-59" x="306.16" y="131.66" width="152.93" height="13.84"/><rect class="cls-44_construction-site-59 targetColor" x="237.46" y="51.74" width="2.17" height="226.23" style="fill: rgb(0, 49, 83);"/><rect class="cls-44_construction-site-59 targetColor" x="292.93" y="75.08" width="15.41" height="228.27" style="fill: rgb(0, 49, 83);"/><rect class="cls-5_construction-site-59" x="294.69" y="75.08" width="15.41" height="228.27"/><rect class="cls-44_construction-site-59 targetColor" x="299.08" y="75.08" width="2.17" height="228.27" style="fill: rgb(0, 49, 83);"/><polygon class="cls-44_construction-site-59 targetColor" points="239.63 107.74 292.93 127.58 292.93 145.5 239.63 122.36 239.63 107.74" style="fill: rgb(0, 49, 83);"/><polygon class="cls-3_construction-site-59" points="239.63 110.04 292.93 129.88 292.93 145.5 239.63 122.36 239.63 110.04"/><polygon class="cls-44_construction-site-59 targetColor" points="246.72 106.63 292.93 123.83 292.93 125.87 246.72 108.72 246.72 106.63" style="fill: rgb(0, 49, 83);"/></g><g id="character_construction-site-59"><path class="cls-43_construction-site-59" d="M130.55,216.16c1.13,1.43,1.66,3.24,1.48,5.05-.09.79-.3,1.57-.34,2.36-.08.8.17,1.6.7,2.21.47.45,1.21.74,1.32,1.37.17.87-.91,1.38-1.55,2.01-.56.7-.95,1.52-1.13,2.4-.39,1.28-.93,2.52-1.6,3.69-.58,1.23-1.58,2.21-2.82,2.76-.87.31-1.93.23-2.76.71-1.95,1.12-1.49,4.35-3.29,5.73-.52.35-1.12.56-1.74.63-1.43.22-2.89.02-4.21-.57-.59-.23-1.11-.63-1.48-1.15-.35-.7-.47-1.49-.36-2.27.15-2.61.5-5.27.42-7.9-.04-1.41-.21-2.82-.19-4.23.04-4.23,1.95-8.22,5.22-10.91,3.34-2.64,7.82-3.35,11.81-1.88l-.77-.87"/><path class="cls-42_construction-site-59" d="M116.62,223.33c-1.22.32-1.98,1.53-1.74,2.76.31,1.2,1.37,2.05,2.61,2.1l-2.77,5.33c-.23.45-.63.99-1.12.87s-.62-.8-.71-1.33c-.3-1.68-1.62-2.96-2.36-4.49-1.1-2.23-.87-4.86-.68-7.34.2-2.21.43-4.52,1.63-6.39.7-1.01,1.57-1.89,2.56-2.61,1.66-1.41,3.66-2.34,5.8-2.7,1.81-.13,3.62.1,5.34.66,1.73.37,3.35,1.12,4.75,2.2,1.4,1.12,2.03,2.96,1.6,4.7-2.61.35-7.68,0-9.72,1.9-1.74,1.64-.56,5.22-2.81,6.34-.09-1.5-1.11-1.82-2.36-2.01h-.02Z"/><path class="cls-44_construction-site-59 targetColor" d="M138.89,214c-.8-.48-4.35-1.96-5.16-2.44-.16-2.82-3.19-6.49-7.35-8.05-3.11-1.12-9.51-1.12-14.59,2.69-5.76,4.35-4.96,11.63-5.02,13.54-.03,1.34,1.02,2.45,2.36,2.49.35,0,.7-.06,1.03-.2,1.54-.7,3.12-1.3,4.73-1.81l6.95-1.74c4.91-1.3,12.11-3.2,17.04-4.47h.01Z" style="fill: rgb(0, 49, 83);"/><polygon class="cls-10_construction-site-59" points="137.82 213.54 117.26 218.86 124.05 215.25 125.91 214.27 129.05 213.18 132.59 211.96 133.73 211.56 137.82 213.54"/><polygon class="cls-42_construction-site-59" points="117.26 219.55 111.12 230.85 109.71 227.41 111.65 224.01 109.41 222.39 111.79 221.31 113.34 222.55 113.97 220.5 117.26 219.55"/><path class="cls-44_construction-site-59 targetColor" d="M107.63,221.63s.97.25,3.48-.87c2.01-.81,4.08-1.46,6.19-1.93l8.64-4.59s-10.99-5.53-17.47.74c-.03.02-2.56,3.49-.83,6.65h-.01Z" style="fill: rgb(0, 49, 83);"/><path class="cls-12_construction-site-59" d="M107.5,212.52s4.7-8.08,12.24-8.05c3.56.03,6.98,1.32,9.68,3.64,0,0-12.95-8.15-21.92,4.41Z"/><path class="cls-8_construction-site-59" d="M107.33,220.95s.09,1.24,2.16.43c2.08-.81,8.34-2.61,8.34-2.61l2.89-1.74s-12.25,4.7-13.4,3.91h.01Z"/><path class="cls-42_construction-site-59" d="M110.67,415.67c14.19-27.18,22.71-56.96,25.03-87.53.21-2.78.32-5.77-1.15-8.15-2.81-4.56-9.42-4.29-14.7-3.48-2.4.38-5.11.98-6.31,3.09-.87,1.56-10.02,7.19-9.19,8.77,6.09,11.48,8.55,26.21,5.51,41.52-2.99,15.07-8.36,26.2-10.52,41.24,1.23.1,10.86,5.42,11.33,4.53h0Z"/><path class="cls-44_construction-site-59 targetColor" d="M170.14,261.17c-.87,5.89-3.29,11.74-7.75,15.65s-11.12,5.65-16.61,3.33c-5.75-2.43-9.02-8.4-11.86-13.91-.06,13.97,5.55,27.82,3.6,41.62-.14,2.02-.87,3.95-2.08,5.57-1.5,1.74-3.81,2.46-6.01,3.07-7.68,2.09-15.54,3.48-23.47,4.15-.77.06-1.52.13-2.29.17-.92-4.56-1.3-10.49-1.37-17.73v-2.19c0-5.81.14-12.38.36-19.66v-2.11c0-.41,0-1.04.05-1.74v-4.23c.15-4.52.3-9.28.43-14.27,0-.64,0-1.28.04-1.93.02-1.77.23-3.54.63-5.27.62-2.88,2.33-5.4,4.77-7.04h0c1.83-1.2,3.8-2.15,5.88-2.83,8.31-2.91,18.2-1.17,24.14,5.09,1.02,1.09,1.94,2.27,2.74,3.54,1.32,2.02,2.42,4.17,3.56,6.31,1.15,2.28,2.49,4.45,4.01,6.49,1.37,1.74,3.37,3.4,5.54,3.02,3.11-.56,3.96-4.56,4-7.69.06-5.2-.23-10.41-.87-15.57,3.98-.36,7.98-.22,11.92.43.49,3.19.82,6.4.98,9.62.13,2.71.02,5.43-.34,8.13v-.02Z" style="fill: rgb(0, 49, 83);"/><path class="cls-11_construction-site-59" d="M120.32,286.43c-2.33,3.8-5.5,7.01-8.69,10.08-1.5,1.43-.63,18.73-2.18,20.13-.57.5-1.95,2.21-3.48,4-.77.06-1.52.13-2.29.17-.92-4.56-1.3-10.49-1.37-17.73v-2.19c0-5.81.14-12.38.36-19.66v-2.11c0-.41,0-1.04.05-1.74v-4.23c1.09-.95,1.88,3.03,2.08,3.55.07.17.16.33.29.47.18.14.4.21.63.18,1.03-.17,1.97-.72,2.61-1.55,1.7-1.7,3.32-3.48,4.86-5.34l10.28,3.27c.67,4.42-.79,8.89-3.13,12.69h-.02Z"/><path class="cls-44_construction-site-59 targetColor" d="M122.22,273.46c-3.02,12.38-12,24.34-19.92,27.44-3.24,1.26-6.3,1.04-8.69-1.24-4.35-3.89-5.22-18.26-3.89-34.36.15-1.99.55-3.95,1.2-5.83.92-2.57,2.33-4.95,4.13-7.01,3.71-4,8.5-6.84,13.79-8.19l-.08.35-1.41,6.85-1.49,7.2-2.98,14.47-1.74,8.34c0,.95.58.7,1.47-.24,2.48-2.61,7.42-10.58,9.5-12.24.06-.05.12-.1.17-.16l9.93,4.62h.01Z" style="fill: rgb(0, 49, 83);"/><path class="cls-2_construction-site-59" d="M144.9,256.75c-.29.06-.59.1-.87.14-6.38.76-12.82.5-19.24.64s-12.62.66-18.93,1.13l-2.55.2c-4.12.28-8.26.52-12.4.6.92-2.57,2.33-4.95,4.13-7.01.61-.14,1.23-.23,1.85-.28,2.36-.19,4.72-.37,7.09-.51,1.12-.08,2.24-.14,3.36-.2,7.51-.43,15.01-.7,22.52-.97,3.83-.13,7.65-.26,11.47-.05h0c1.33,2.02,2.43,4.17,3.57,6.31h0Z"/><path class="cls-42_construction-site-59" d="M127.64,363.46c9.41,12.28,18.3,26.08,19.13,41.49.16,2.77.47,6.22,3.06,7.22,1.24.34,2.56.32,3.79-.06l9.56-1.97-5.96-26.66c-1.5-6.73-3.02-13.52-5.85-19.8-1.99-4.41-4.6-8.51-6.75-12.86-5.42-10.97-7.73-23.17-9.99-35.2-11.19.73-36.6-4.25-30.27,12.81,5.02,13.61,16.12,22.86,23.27,35.04h.01Z"/><path class="cls-42_construction-site-59" d="M153.13,415.8c.17.62.47,1.19.87,1.7.84.81,2.03,1.14,3.16.87,1.11-.27,2.17-.74,3.13-1.36.54-.25,1-.64,1.33-1.13.32-.85.29-1.78-.09-2.61l-1.57-4.98c-.05-.3-.23-.57-.49-.73-.34-.07-.7.03-.96.27-1.74,1.16-4.35,1.3-5.95,2.45s-.06,3.8.56,5.53h.01Z"/><path class="cls-42_construction-site-59" d="M100.01,418.16c1.56,1.03,3.29,1.78,5.1,2.23.28.09.59.09.87,0,.42-.15.61-.62.75-1.03l2.25-6.45c-.27.78-4.82-3.16-5.9-2.76-2.01.79-2.68,6.21-3.07,8.02h0Z"/><path class="cls-42_construction-site-59" d="M159.54,413.55c.97-.35,1.99-.56,3.03-.63,2.89-.07,5.66,2.06,8.48,1.4.73-.25,1.47-.47,2.23-.63,1.85-.07,3.48,1.23,3.82,3.05.27,1.8-.31,3.62-1.57,4.92-1.26,1.27-2.76,2.29-4.41,3-3.39,1.66-7.02,2.78-10.75,3.3-.94.19-1.91.13-2.83-.16-.75-.34-1.4-.85-1.9-1.5-1.81-2.07-3.86-5.7-3.54-8.59.34-3.05,5.03-3.42,7.46-4.16h-.02Z"/><path class="cls-42_construction-site-59" d="M107.86,419.04c.41.12.79.31,1.13.57.38.42.65.93.8,1.48.98,2.6,2.68,4.87,4.89,6.55.92.57,1.73,1.3,2.38,2.16.65.91.52,2.16-.31,2.9-.5.28-1.07.4-1.64.35-1.89-.05-3.76-.24-5.62-.55-5.05-.73-10.43-1.61-14.22-5.02-1.04-.81-1.74-1.97-1.96-3.27-.16-1.65.87-2.96,1.74-4.24.63-.94,1.43-3.03,2.42-3.65,2.22-1.36,8.15,1.95,10.41,2.73h-.02Z"/><path class="cls-44_construction-site-59 targetColor" d="M218.91,234.28s-.06.95-.14,2.4c-.26,4.54-.81,13.96-.87,14.13s-208.48,9.23-208.48,9.23l-.87-12.17-.22-2.36,12.17-.11,198.4-11.12h0Z" style="fill: rgb(0, 49, 83);"/><path class="cls-9_construction-site-59" d="M218.77,236.68c-.26,4.54-.81,13.96-.87,14.13s-208.48,9.23-208.48,9.23l-.87-12.17,11.95-.1,198.26-11.09h0Z"/><path class="cls-44_construction-site-59 targetColor" d="M218.91,240.12s-.06.95-.14,2.4c-.26,4.55-.81,13.97-.87,14.13s-208.48,9.21-208.48,9.21l-.87-12.17-.22-2.33,12.17-.11,198.4-11.12h0Z" style="fill: rgb(0, 49, 83);"/><path class="cls-32_construction-site-59" d="M218.77,242.52c-.26,4.55-.81,13.97-.87,14.13s-208.48,9.21-208.48,9.21l-.87-12.17,11.95-.06,198.26-11.1h0Z"/><path class="cls-43_construction-site-59" d="M119.95,271.93c2.2-2.66,3.06-5.33,4.08-8.63.3-.99-.66-1.03-1.8,1.68.29-1.92.87-5.02.87-5.76-1.02-.94-1.24.77-1.53,1.47-.45.92-.85,1.86-1.21,2.83.17-1.65.16-2.43.33-4.08,0-.3,0-.72-.3-.79-1.56.31-.95,3.96-2.34,5.35.23-1.52.46-5.12,0-4.89-.87,0-1.29,1.11-1.44,1.99l-.87,4.93c-.49-.15-.58-.77-.7-1.27s-.65-1.04-1.06-.74c-.13.12-.22.28-.24.45-.04.62,0,1.25.14,1.86.11,1.2-.31,2.4-1.15,3.27,2.3,1.08,4.73,1.87,7.23,2.34h-.01Z"/><path class="cls-43_construction-site-59" d="M160.41,235.81c-.46.56-.81,1.2-1.03,1.89-.25.53-.38,1.1-.37,1.69,0,.6.39,1.12.96,1.32.15.05.31.04.44-.04.09-.07.16-.17.21-.28.47-.89.87-1.82,1.2-2.77-.72.9-.87,2.14-.37,3.19.17.36.51.7.87.62s.5-.47.59-.81c.23-.8.41-1.61.56-2.42-.12.52-.2,1.05-.23,1.58-.03.27,0,.55.1.81.11.26.37.43.65.41.23-.07.43-.22.56-.43.62-.8,1.13-1.68,1.52-2.61-.19.86-.15,1.76.1,2.61.04.13.11.25.22.33.36.27.87-.13,1.08-.51.46-.72.8-1.52,1.01-2.35.14-.44.17-.9.09-1.36-.09-.47-.42-.85-.87-1-.46-.12-.92.15-1.05.61.08-.58-.57-1.05-1.16-.99-.58.12-1.09.46-1.42.95-.05-.56-.49-1-1.05-1.04-1.02-.1-1.76-.32-2.59.61h-.02Z"/><path class="cls-33_construction-site-59" d="M170.14,261.17c-.87,5.89-3.29,11.74-7.75,15.65s-11.12,5.65-16.61,3.33c-5.75-2.43-9.02-8.4-11.86-13.91,0,0,.34-4.93,3.91-1.99s8.87,20.75,19.81,10.35c10.95-10.41,10.99-21.51,10.99-21.51l1.87-.08c.13,2.73,0,5.46-.36,8.16Z"/></g></svg>