<svg version="1.1" id="Layer_1" xmlns="http://www.w3.org/2000/svg" xmlns:xlink="http://www.w3.org/1999/xlink" x="0px" y="0px" viewBox="0 0 500 500" style="width: 144px;" xml:space="preserve" data-imageid="resting-49" imageName="Resting" class="illustrations_image">
<style type="text/css">
	.st0_resting-49{fill:#FFD5B8;}
	.st1_resting-49{fill:url(#SVGID_1_);}
	.st2_resting-49{fill:url(#SVGID_00000031205202326426783520000015103624356007395511_);}
	.st3_resting-49{fill:url(#SVGID_00000016064646538642280390000006874074321927623571_);}
	.st4_resting-49{fill:#EF8A3F;}
	.st5_resting-49{opacity:0.3;fill:#091114;enable-background:new    ;}
	.st6_resting-49{fill:#FF9A55;}
	.st7_resting-49{fill:#091114;}
	.st8_resting-49{fill:#68E1FD;}
	.st9_resting-49{opacity:0.46;fill:#091114;enable-background:new    ;}
	.st10_resting-49{opacity:0.22;fill:#091114;enable-background:new    ;}
	.st11_resting-49{fill:#981E61;}
	.st12_resting-49{opacity:0.5;fill:#091114;enable-background:new    ;}
	.st13_resting-49{fill:#9BC634;}
	.st14_resting-49{fill:#85AA1D;}
	.st15_resting-49{fill:#935542;}
</style>
<path id="Base_resting-49" class="st0_resting-49" d="M32.6,283.4L205,183.2c2.5-1.5,5.6-1.5,8.1,0l257.8,147.5c3.9,2.2,5.2,7.2,3,11.1&#10;&#9;c-0.7,1.2-1.8,2.3-3,3L306.1,440c-8.2,4.8-18.4,4.8-26.6,0L32.6,297.5c-3.9-2.2-5.2-7.2-3-11.1C30.4,285.2,31.4,284.1,32.6,283.4z"/>
<g id="Shadow_resting-49">
	
		<linearGradient id="SVGID_1_-resting-49" gradientUnits="userSpaceOnUse" x1="104.6152" y1="774.4592" x2="69.8252" y2="822.2092" gradientTransform="matrix(1 0 0 1 0 -498)">
		<stop offset="0" style="stop-color:#935542"/>
		<stop offset="1" style="stop-color:#FFFFFF;stop-opacity:0"/>
	</linearGradient>
	<path class="st1_resting-49" d="M84.5,328.3c9.7-8.3,16.8-16.1,26.8-24L76,300.7l-22.5,8.9C63.7,316.1,74.1,322.2,84.5,328.3z"/>
	
		<linearGradient id="SVGID_00000119079739588633089820000003627765237290165920_-resting-49" gradientUnits="userSpaceOnUse" x1="282.7687" y1="774.1445" x2="246.2186" y2="824.3245" gradientTransform="matrix(1 0 0 1 0 -498)">
		<stop offset="0" style="stop-color:#935542"/>
		<stop offset="1" style="stop-color:#FFFFFF;stop-opacity:0"/>
	</linearGradient>
	<path style="fill:url(#SVGID_00000119079739588633089820000003627765237290165920_);" d="M300.8,391.4l66.5-43.1L204.8,247.6&#10;&#9;&#9;L131,296.3C140,302.5,291.9,385,300.8,391.4z"/>
	
		<linearGradient id="SVGID_00000167357464996013437550000015196528290398506418_-resting-49" gradientUnits="userSpaceOnUse" x1="199.7601" y1="860.7735" x2="184.5201" y2="883.7935" gradientTransform="matrix(1 0 0 1 0 -498)">
		<stop offset="0" style="stop-color:#935542"/>
		<stop offset="1" style="stop-color:#FFFFFF;stop-opacity:0"/>
	</linearGradient>
	<path style="fill:url(#SVGID_00000167357464996013437550000015196528290398506418_);" d="M232.7,413.4l42.6-23.8L143,325.4&#10;&#9;&#9;l-25.7,21C122.9,350.2,227.1,409.4,232.7,413.4z"/>
</g>
<g id="Desk_resting-49">
	<polygon class="st4_resting-49" points="244.1,406.7 275.3,389.6 275.3,354.5 238.1,370.2 &#9;"/>
	<polygon class="st5_resting-49" points="244.1,406.7 275.3,389.6 275.3,354.5 238.1,370.2 &#9;"/>
	<polygon class="st4_resting-49" points="126.2,303.5 126.2,338.7 244.1,406.7 244.9,372 &#9;"/>
	<polygon class="st6_resting-49" points="126.2,303.5 157.6,285.5 275.3,354.5 244.9,372 &#9;"/>
</g>
<g id="TV_resting-49">
	<path class="st7_resting-49" d="M160.6,249.4l94.1,54.3c0.9,0.5,1.4,1.5,1.4,2.5v40.9c0,1.6-1.3,2.9-2.9,2.9c-0.5,0-1-0.1-1.4-0.4l-94.1-54.3&#10;&#9;&#9;c-0.9-0.5-1.4-1.5-1.4-2.5v-40.9c0-1.6,1.3-2.9,2.9-2.9C159.7,249.1,160.2,249.2,160.6,249.4z"/>
	<polyline class="st7_resting-49" points="192.6,313.1 191,327 210.5,337.8 208.4,322.2 &#9;"/>
	
		<ellipse transform="matrix(0.4346 -0.9006 0.9006 0.4346 -183.8286 367.5092)" class="st7_resting-49" cx="200.8" cy="330.2" rx="3.7" ry="20.1"/>
</g>
<g id="Lamp_resting-49">
	<path class="st4_resting-49" d="M79.5,285.3c-0.6,0-1.3-0.1-1.8-0.4l-0.3,1.9l29.9,0.8v-2.2L79.5,285.3z"/>
	<path class="st4_resting-49" d="M77.7,285l-0.3,1.8l16.5,9.5V294C88.3,291.3,83,288.2,77.7,285z"/>
	<path class="st4_resting-49" d="M94.3,156.2c-1,0.2-2,0-2.9-0.4l-18.9,146c1.2,0.7,2.3,1.3,3.5,2l19.1-147.7C94.9,156.1,94.6,156.2,94.3,156.2&#10;&#9;&#9;z"/>
	<path class="st4_resting-49" d="M98.7,156c-0.7,0.1-1.4,0.1-2.1,0c-0.6,0-1.1,0-1.7,0.1l12.8,149.8c1-0.5,2-0.9,3-1.3l0.5-0.2h0.1L98.7,156z"/>
	<path class="st4_resting-49" d="M96.6,156.1c-0.8,0-1.5,0-2.3,0.1c-0.3,0-0.6,0.1-0.9,0.1l-1.2,158.3l0,0c0.6-0.2,1.3-0.3,2-0.2h1.1l0.6-0.1&#10;&#9;&#9;l1.2-158.2L96.6,156.1z"/>
	<path class="st8_resting-49 targetColor" d="M75.9,158.6v32.7c0,0,37.6,1.1,37.6,0v-32.7" style="fill: rgb(0, 49, 83);"/>
	<ellipse class="st8_resting-49 targetColor" cx="94.8" cy="158.5" rx="18.8" ry="8.7" style="fill: rgb(0, 49, 83);"/>
	<ellipse class="st9_resting-49" cx="94.8" cy="158.5" rx="18.8" ry="8.7"/>
	<ellipse class="st8_resting-49 targetColor" cx="94.8" cy="191.8" rx="18.8" ry="8.7" style="fill: rgb(0, 49, 83);"/>
</g>
<g id="Sofa_resting-49">
	<path class="st8_resting-49 targetColor" d="M354.5,354.4c0,0,6-0.7,12.9-6s-12.9-4.5-12.9-4.5V354.4z" style="fill: rgb(0, 49, 83);"/>
	<path class="st10_resting-49" d="M354.5,354.4c0,0,6-0.7,12.9-6s-12.9-4.5-12.9-4.5V354.4z"/>
	<path class="st7_resting-49" d="M209.5,256.4v17.7c0,0,0.9,2.5,5,2.2s4.7-2.8,4.7-2.8v-21.2L209.5,256.4z"/>
	<path class="st7_resting-49" d="M339,335.7v17.7c0,0,0.9,2.5,5,2.2s4.7-2.8,4.7-2.8v-21.2L339,335.7z"/>
	<path class="st8_resting-49 targetColor" d="M367.6,260.1c8.8-5.8,17.9-11.2,26.7-17.1l-142.9-81.7c-5.7-3.3-12.8-3.2-18.5,0.1l-39.5,23.2&#10;&#9;&#9;c-6.5,3.8-5.5,9.6-5.5,9.6s-1.8,54.2,0,57.8s7.2,6,7.2,6l159.4,96.3C367.5,344.4,356.9,267.2,367.6,260.1z" style="fill: rgb(0, 49, 83);"/>
	<path class="st9_resting-49" d="M367.6,260.1c8.8-5.8,17.9-11.2,26.7-17.1l-142.9-81.7c-5.7-3.3-12.8-3.2-18.5,0.1l-39.5,23.2&#10;&#9;&#9;c-6.5,3.8-5.5,9.6-5.5,9.6s-1.8,54.2,0,57.8s7.2,6,7.2,6l159.4,96.3C367.5,344.4,356.9,267.2,367.6,260.1z"/>
	<path class="st8_resting-49 targetColor" d="M375,272.6c0,0-132.9-76.2-132.6-77s0-28.6,0-28.6l156.8,90.3L375,272.6z" style="fill: rgb(0, 49, 83);"/>
	<path class="st8_resting-49 targetColor" d="M412.4,255.2l-1.8-0.2c-2.8,2.1-5.8,3.8-9,5.1c-13.2,9.9-28,18.2-42.8,25.7v63.8c1.9,0.4,3.8,0.5,5.8,0.3&#10;&#9;&#9;l40.9-24.2c5.3-3.2,8.6-8.9,8.6-15.1v-53.7C413.5,256.3,412.9,255.8,412.4,255.2z" style="fill: rgb(0, 49, 83);"/>
	<path class="st10_resting-49" d="M375,272.6c0,0-132.9-76.2-132.6-77s0-28.6,0-28.6l156.8,90.3L375,272.6z"/>
	<path class="st8_resting-49 targetColor" d="M202.6,217.9l40.1-22.4l151.8,87.1l-45.6,24.9c-2.2,1.2-4.8,1.2-6.9,0l-139.4-78.3c-3.1-1.8-4.3-5.7-2.5-8.9&#10;&#9;&#9;C200.7,219.3,201.5,218.5,202.6,217.9z" style="fill: rgb(0, 49, 83);"/>
	<path class="st10_resting-49" d="M412.4,255.2l-1.8-0.2c-2.8,2.1-5.8,3.8-9,5.1c-13.2,9.9-28,18.2-42.8,25.7v63.8c1.9,0.4,3.8,0.5,5.8,0.3&#10;&#9;&#9;l40.9-24.2c5.3-3.2,8.6-8.9,8.6-15.1v-53.7C413.5,256.3,412.9,255.8,412.4,255.2z"/>
	<path class="st8_resting-49 targetColor" d="M189.2,186.4c0,0-3.9,1.3,0,6.1s18-5.3,18-5.3l35.1-20.2l156.8,90.3l-40.9,23.3c0,0-3.2,2.5-0.8,5.3&#10;&#9;&#9;s5.7,1.5,12.4-1.8s43-23.9,43-23.9s3.6-2.5-1.9-7.1s-161.2-92.3-161.2-92.3s-5.8-5.3-12.9-1.7S189.2,186.4,189.2,186.4z" style="fill: rgb(0, 49, 83);"/>
</g>
<g id="Wall_Photo_resting-49">
	<path class="st6_resting-49" d="M373.1,121.6l-1.1,62.5c0,2.2-1.8,3.9-4,3.9c-0.6,0-1.2-0.2-1.7-0.4l-53.1-26.5c-1.8-0.9-2.9-2.7-2.9-4.8&#10;&#9;&#9;l1.1-62.6c0.1-2.4,2-4.2,4.4-4.2c0.6,0,1.3,0.2,1.8,0.5l52.7,26.8C372.1,117.8,373.2,119.6,373.1,121.6z"/>
	<path class="st11_resting-49" d="M340.3,152.6c-3.8-6.6-7.3-13.4-10.6-20.2c-2.1-4.3-8.5-0.5-6.4,3.8c3.3,6.9,6.9,13.6,10.6,20.2&#10;&#9;&#9;C336.2,160.5,342.6,156.8,340.3,152.6z"/>
	<path class="st11_resting-49" d="M355.6,151.1c-7.7-11.9-14.7-24.2-21-36.9c-2.1-4.3-8.6-0.5-6.4,3.8c6.3,12.7,13.3,25,21,36.9&#10;&#9;&#9;C351.8,158.9,358.2,155.1,355.6,151.1z"/>
	<path class="st11_resting-49" d="M353.2,124.1c-4.8,0-4.8,7.5,0,7.5S358,124.1,353.2,124.1z"/>
</g>
<g id="Character_resting-49">
	<polygon class="st11_resting-49" points="374.2,280.7 365.4,277.2 368.1,263.1 376.4,261.3 &#9;"/>
	<path class="st11_resting-49" d="M374.2,280.7c0,0-0.8-6.7-1.3-9.8s-2.5-20.2,5.4-19.7s2.9,17.3,3.1,19.1s1,7.1-0.1,8.7&#10;&#9;&#9;S376.8,282.5,374.2,280.7z"/>
	<path class="st12_resting-49" d="M378.3,251.3c-4.6-0.3-5.9,5.5-6,10.9l-4.2,0.9l-2.7,14.2l8.9,3.5c2.5,1.7,5.9,0,7.1-1.6s0.4-6.8,0.1-8.7&#10;&#9;&#9;S386.2,251.9,378.3,251.3z"/>
	<path class="st4_resting-49" d="M243.9,151.4c0,0-4.7,1.6-5.2,1.6s-8.8-0.1-8.3,4.7s13.5,3.6,13.5,3.6l6-6.2"/>
	<path class="st4_resting-49" d="M227.2,157.2l6.6-2.2c0,0,8.1-1.7,8.9,0s-1.5,7.4-2.2,7.6l-6.1,1.4l-6,0.7"/>
	<path class="st6_resting-49" d="M279.7,221.1c0,0,41.2,26.7,45.2,27.1s44.7,16,44.7,16s-2,10.1-0.9,14.8c0,0-74.3-18.5-83.6-21.6&#10;&#9;&#9;s-30.8-24.2-25.4-29.8C265.1,222,279.7,221.1,279.7,221.1z"/>
	<path class="st5_resting-49" d="M279.7,221.1c0,0,41.2,26.7,45.2,27.1s44.7,16,44.7,16s-2,10.1-0.9,14.8c0,0-74.3-18.5-83.6-21.6&#10;&#9;&#9;s-30.8-24.2-25.4-29.8C265.1,222,279.7,221.1,279.7,221.1z"/>
	<path class="st13_resting-49" d="M255.8,178.9c3.4-3.1,9-17.2,7.6-20.5s-10.5,2.1-10.5,2.1l-9.1-9.2c0,0,12.7-10.3,18.7-11.9&#10;&#9;&#9;s10.7,0.3,12.7,7.4s-4.4,32.4-3.6,37.8s8,36.3,8,36.3c-5.8,9.8-29.4,14.9-32.7,14.1s-20.1-37.9-20.1-37.9s-31.4-20.2-27.2-29.6&#10;&#9;&#9;s22.3-12.1,26-12.5s6.5,11.4,6.5,11.4s-11.9,3.3-13,4.8s4.1,5.4,14,7.5s12.1,0.9,12.1,0.9"/>
	<path class="st11_resting-49" d="M384.2,267.4c0,0,2.9,1.9,4.8-0.4s3-20.9,4.5-24.6s1.6-10.3-3-10.8s-5.2,1.8-6.2,4.8s-4.7,12.3-8.1,13.4&#10;&#9;&#9;c-2.9,0.9-5.8,1.6-8.8,2.2l0.8,11L384.2,267.4z"/>
	<path class="st7_resting-49" d="M252.4,183.9c0,0,8.1,36.2,8.4,37.1s7.7,5.2,7.7,5.2l1.6-6.5l-15.5-36.5L252.4,183.9z"/>
	<path class="st14_resting-49" d="M241.7,180.2c0,0,10.6,9,10.1,8.4s2.3-4.2,2.3-4.2l4.7,1.4l-5.4-9.4"/>
	<path class="st4_resting-49" d="M258.5,163.4c0,0,4,14.6-2.6,17.8s-11.2-1.6-13.2-5.9s-1.2-14.6,7.3-15.6C257.4,158.7,258.5,163.4,258.5,163.4&#10;&#9;&#9;z"/>
	<path class="st15_resting-49" d="M259.8,160.6c0.7-1.8,1-5-1.1-6c-1.6-0.6-3.4-0.3-4.7,0.9c-0.7-0.6-1.6-1-2.5-1.2c-3.4-1-7-0.2-9.7,2.1&#10;&#9;&#9;c-0.1,0.1-0.3,0.2-0.4,0.3c-0.2,0.1-0.4,0.1-0.6,0.1c-5.2,0.1-6.3,6-5.4,10c0.9,4.2,3.1,7.9,6.3,10.8c1.4,1.1,3,1.9,4.7,2.4&#10;&#9;&#9;c0.2,0.1,0.4-0.1,0.5-0.3v-0.1c0.2-0.1,0.3-0.4,0.2-0.7l0,0c-0.4-0.9-0.6-1.9-0.4-2.8c0-0.1,0-0.3-0.1-0.4c0.2-0.2,0.2-0.5,0-0.7&#10;&#9;&#9;c-0.1-0.1-0.2-0.1-0.3-0.1c-1.1,0.1-2.2-0.3-3-1.1c-0.5-0.5-0.9-1.5,0.1-1.7c0.4-0.1,0.7,0,1,0.3c0.1,0.2,0.3,0.5,0.5,0.7&#10;&#9;&#9;c0.1,0.1,0.2,0.1,0.3,0.1c0.4,0.1,0.8-0.2,0.6-0.6c-0.2-0.3-0.4-0.5-0.6-0.8c-0.7-1.1-0.4-2.5,0.5-3.4c1.2-1.1,2.3-0.5,3.7-0.4&#10;&#9;&#9;c0.9,0.1,1.8-0.4,2-1.3c0-0.6-0.1-1.2-0.2-1.7c0-0.9,0.5-1.7,1.3-2c1.5-0.6,2.4,0.7,3.5,1.4c0.9,0.7,2.1,0.9,3.2,0.6&#10;&#9;&#9;c1.4-0.4,2.3-1.8,1.9-3.2c-0.1-0.4-0.3-0.7-0.5-1C260.2,160.6,260,160.5,259.8,160.6z M250.8,162.7c0.2-0.3,0.4-0.5,0.7-0.6&#10;&#9;&#9;c0.1,0,0.2-0.1,0.3-0.2h0.1l0.1,0.1C251.5,162.1,251.1,162.4,250.8,162.7L250.8,162.7z M259.1,159.6L259.1,159.6&#10;&#9;&#9;c0-0.2,0.1-0.3,0.1-0.5C259.2,159.2,259.2,159.4,259.1,159.6L259.1,159.6z"/>
	<path class="st6_resting-49" d="M247,235.2c0,0,6.8,21,20.4,25.4c13.6,4.3,24.5-4,30.8-2.1s58,8.2,71.5,5.8c0,0,2.3-14.4-0.9-17.5&#10;&#9;&#9;s-59.7-14.4-65.3-15.2s-30.2-4.5-30.2-4.5"/>
</g>
</svg>