<svg version="1.1" id="Layer_1" xmlns="http://www.w3.org/2000/svg" xmlns:xlink="http://www.w3.org/1999/xlink" x="0px" y="0px" viewBox="0 0 500 500" style="width: 213px;" xml:space="preserve" data-imageid="scrum-board-27" imageName="Scrum Board" class="illustrations_image">
<style type="text/css">
	.st0_scrum-board-27{fill:#FFE922;}
	.st1_scrum-board-27{opacity:0.32;fill:url(#SVGID_1_);enable-background:new    ;}
	.st2_scrum-board-27{fill:url(#SVGID_00000070839622645231592330000006216104606246164134_);}
	.st3_scrum-board-27{opacity:0.32;fill:url(#SVGID_00000079461928213063612320000005995035490293984951_);enable-background:new    ;}
	.st4_scrum-board-27{fill:#FFC65A;}
	.st5_scrum-board-27{fill:#68E1FD;}
	.st6_scrum-board-27{opacity:0.52;fill:#091114;enable-background:new    ;}
	.st7_scrum-board-27{fill:#AA6800;}
	.st8_scrum-board-27{fill:#091114;}
	.st9_scrum-board-27{fill:#F15A24;}
	.st10_scrum-board-27{fill:#AD3C04;}
	.st11_scrum-board-27{fill:#E28133;}
	.st12_scrum-board-27{opacity:0.46;fill:#091114;enable-background:new    ;}
	.st13_scrum-board-27{fill:#FFAC99;}
</style>
<path id="Base_scrum-board-27" class="st0_scrum-board-27" d="M54,309.8l245.1,136.7c4.7,2.6,10.6,2.4,15.1-0.6l124.2-83.2c6.6-4.4,8.4-13.4,4-20&#10;&#9;c-1.3-1.9-3-3.5-5-4.6L204.2,209.5c-4.3-2.4-9.6-2.4-13.9,0L54,284.5c-7,3.9-9.5,12.7-5.6,19.7C49.7,306.6,51.6,308.5,54,309.8z"/>
<g id="Shadow_scrum-board-27">
	
		<linearGradient id="SVGID_1_-scrum-board-27" gradientUnits="userSpaceOnUse" x1="268.6005" y1="75.5794" x2="286.1605" y2="89.4094" gradientTransform="matrix(1 0 0 -1 0 502)">
		<stop offset="0" style="stop-color:#FFFFFF;stop-opacity:0"/>
		<stop offset="0.98" style="stop-color:#AA6800"/>
	</linearGradient>
	<path class="st1_scrum-board-27" d="M334.6,369.2l-82.3,48.3l19.2,10.6l81.3-46.2C341.7,374.5,344.1,378.4,334.6,369.2z"/>
	
		<linearGradient id="SVGID_00000145757200576483870920000017669064205776380083_-scrum-board-27" gradientUnits="userSpaceOnUse" x1="113.3894" y1="232.3604" x2="78.7594" y2="184.8304" gradientTransform="matrix(1 0 0 -1 0 502)">
		<stop offset="0" style="stop-color:#F15A24"/>
		<stop offset="1" style="stop-color:#FFFFFF"/>
	</linearGradient>
	<path style="fill:url(#SVGID_00000145757200576483870920000017669064205776380083_);" d="M93.4,321.3c9.7-8.3,16.7-16,26.7-23.9&#10;&#9;&#9;l-35.2-3.6l-22.4,8.8C72.6,309.1,83,315.2,93.4,321.3z"/>
	
		<linearGradient id="SVGID_00000062899500111323453690000014843590903433435838_-scrum-board-27" gradientUnits="userSpaceOnUse" x1="140.4908" y1="113.1388" x2="222.4408" y2="166.8588" gradientTransform="matrix(1 0 0 -1 0 502)">
		<stop offset="0" style="stop-color:#FFFFFF;stop-opacity:0"/>
		<stop offset="0.98" style="stop-color:#AA6800"/>
	</linearGradient>
	<path style="opacity:0.32;fill:url(#SVGID_00000062899500111323453690000014843590903433435838_);enable-background:new    ;" d="&#10;&#9;&#9;M212.2,323.1l-105.7,59.3l38.7,23.1l103.4-58.7C234.6,337.3,224.3,334.8,212.2,323.1z"/>
</g>
<g id="Pencil_scrum-board-27">
	<polyline class="st4_scrum-board-27" points="385,341.5 411.5,337.4 388.4,361 &#9;"/>
	<ellipse class="st5_scrum-board-27 targetColor" cx="385" cy="351.8" rx="7.9" ry="10.2" style="fill: rgb(0, 49, 83);"/>
	<polygon class="st5_scrum-board-27 targetColor" points="294.6,414.9 388.4,361 382,342.3 287.9,396.4 &#9;" style="fill: rgb(0, 49, 83);"/>
	<ellipse class="st5_scrum-board-27 targetColor" cx="291.6" cy="405.5" rx="7.9" ry="10.2" style="fill: rgb(0, 49, 83);"/>
	<ellipse class="st6_scrum-board-27" cx="291.6" cy="405.5" rx="7.9" ry="10.2"/>
	<path class="st7_scrum-board-27" d="M411.5,337.4l-10,1.6c0,0,3.8,1.3,2.7,5.9L411.5,337.4z"/>
</g>
<g id="Board_scrum-board-27">
	<path class="st8_scrum-board-27" d="M348.5,248.1c0-6.8-10.6-6.8-10.6,0c0.2,29.3,1.4,58.5,3.5,87.7c0.5,6.8,11.1,6.8,10.6,0&#10;&#9;&#9;C349.9,306.6,348.7,277.4,348.5,248.1z"/>
	<path class="st8_scrum-board-27" d="M282.7,223.7L245,275.4c-4,5.5,5.2,10.8,9.2,5.4l37.7-51.7C295.9,223.6,286.7,218.3,282.7,223.7z"/>
	<path class="st9_scrum-board-27" d="M428.8,163.2L230.5,49.1c-2.9-1.6-6.6-0.6-8.2,2.3c-0.4,0.8-0.7,1.6-0.8,2.4L208.7,212c-0.2,2.3,1,4.6,3,5.8&#10;&#9;&#9;l194,109.9c2.9,1.6,6.6,0.6,8.3-2.3c0.4-0.7,0.7-1.5,0.7-2.3l17-153.9C432,166.8,430.9,164.4,428.8,163.2z"/>
	<polygon class="st5_scrum-board-27 targetColor" points="408.9,201.3 324.9,154.3 313.2,252.5 397.5,299.8 &#9;" style="fill: rgb(0, 49, 83);"/>
	<path class="st5_scrum-board-27 targetColor" d="M249.9,97c0,0,0.1,34.4-6.1,41.3l26.1,15.2c2.7-3.5,4.5-7.5,5.3-11.9c0.6-3.9,2.5-29.5,2.5-29.5L249.9,97z" style="fill: rgb(0, 49, 83);"/>
	<path class="st5_scrum-board-27 targetColor" d="M281.7,115.4c0,0,0.1,34.4-6.1,41.3l26.1,15.2c2.7-3.5,4.5-7.5,5.3-11.9c0.6-3.9,2.5-29.5,2.5-29.5&#10;&#9;&#9;L281.7,115.4z" style="fill: rgb(0, 49, 83);"/>
	<polygon class="st8_scrum-board-27" points="347.8,160.9 345,171.9 392.2,197.6 395.5,188 &#9;"/>
	<circle class="st10_scrum-board-27" cx="296.2" cy="122.7" r="4.4"/>
	<polygon class="st10_scrum-board-27" points="291.5,242.6 299.5,181.1 245.9,148.9 &#9;"/>
	<polygon class="st4_scrum-board-27" points="244.4,149.8 291.5,177.3 291.5,242.6 244.4,214.3 &#9;"/>
	<circle class="st10_scrum-board-27" cx="266.4" cy="104" r="4.3"/>
</g>
<g id="Lamp_scrum-board-27">
	<path class="st11_scrum-board-27" d="M88.4,278.5c-0.6,0-1.3-0.1-1.8-0.4l-0.3,1.9l29.7,0.8v-2.2H88.4z"/>
	<path class="st11_scrum-board-27" d="M86.5,278.1l-0.3,1.8l16.4,9.5v-2.3C97.2,284.4,91.8,281.3,86.5,278.1z"/>
	<path class="st11_scrum-board-27" d="M103.1,149.9c-1,0.2-2,0-2.8-0.4L81.4,294.9c1.1,0.7,2.3,1.3,3.5,2l19.1-147&#10;&#9;&#9;C103.7,149.9,103.4,149.9,103.1,149.9z"/>
	<path class="st11_scrum-board-27" d="M107.4,149.8c-0.7,0.1-1.4,0.1-2.1,0c-0.6,0-1.1,0-1.7,0.1l12.7,149.1c1-0.5,2-0.9,3-1.3l0.5-0.3h0.1&#10;&#9;&#9;L107.4,149.8z"/>
	<path class="st11_scrum-board-27" d="M105.4,149.8c-0.8,0-1.5,0.1-2.3,0.2c-0.3,0-0.6,0.1-0.9,0.1L101,307.5l0,0c0.6-0.2,1.3-0.3,2-0.2h1.1&#10;&#9;&#9;l0.6-0.1l1.2-157.5L105.4,149.8z"/>
	<path class="st5_scrum-board-27 targetColor" d="M84.8,152.3v32.6c0,0,37.5,1.1,37.5,0v-32.6" style="fill: rgb(0, 49, 83);"/>
	<ellipse class="st5_scrum-board-27 targetColor" cx="103.6" cy="152.2" rx="18.7" ry="8.7" style="fill: rgb(0, 49, 83);"/>
	<ellipse class="st12_scrum-board-27" cx="103.6" cy="152.2" rx="18.7" ry="8.7"/>
	<ellipse class="st5_scrum-board-27 targetColor" cx="103.6" cy="185.3" rx="18.7" ry="8.7" style="fill: rgb(0, 49, 83);"/>
</g>
<g id="Character_scrum-board-27">
	<path class="st13_scrum-board-27" d="M244.5,165.7c0,0-0.9-5.9,0-8.1s1.4-8.6,1.4-8.6c1.2-0.3,2.3,0.4,2.8,1.5c0.8,2-0.9,6.8-0.9,6.8&#10;&#9;&#9;s4.9,10.1,0,14.7S244.5,165.7,244.5,165.7z"/>
	<path class="st8_scrum-board-27" d="M212.1,197.2l32.4-31.6c0,0,7.3,15.9,0,23.2l-29.7,29.5"/>
	<path class="st10_scrum-board-27" d="M206.1,327.8c0,0-4.5,6.2-4.1,9.8s6.1,9.7,7.4,12.3s1.6,3.7,0,5.6s-15.6-10.2-15.9-12.2s1.9-9.4,1.9-9.4&#10;&#9;&#9;l-6.2,7.8l-4.5-2.6l9.6-16.1"/>
	<path class="st8_scrum-board-27" d="M207.9,355.8c-0.4-0.4-11.4-4.2-11.4-4.2s-5.2-5.4-5-7.5s2-10.2,4-10.1s2.1,10.9,2.1,10.9L207.9,355.8z"/>
	<path class="st10_scrum-board-27" d="M221,338.1l1.4,16.5c0,0,3.6,2.6,4.4,2.4s3.5-0.9,3.5-1.3s-1.3-11.7-0.9-12s5.8,8.6,7.6,8.8&#10;&#9;&#9;s14.8-7.4,13.5-10.3s-7.6-1.4-10.7-1.4s-7.4-1.8-9.8-7.2"/>
	<path class="st4_scrum-board-27" d="M229.3,293.4l8,42.3c0,0-4.6,6-21.1,5.3l-12.3-30"/>
	<path class="st4_scrum-board-27" d="M232.8,227c0,0,12.3,18,8.5,47.1c-3.4,25.8-29.1,56.2-29.1,56.2s-7.7,3.4-23.7-11.8l17.7-28.1&#10;&#9;&#9;c0,0-17.2-40,3.1-65.3"/>
	<path class="st13_scrum-board-27" d="M267.5,192.5c0-2.3,3.5-2.3,3.6,0c0,1.2,0,2.4,0,3.6c0.1-0.3,0.3-0.5,0.4-0.8c1.4-3.3,2.5-6.8,3.2-10.4&#10;&#9;&#9;c0.4-2.3,3.8-1.3,3.5,1c-0.2,1.7-0.6,3.5-1.1,5.2l0.4-0.1c1.2-0.4,2.6,0.3,3,1.6c0,0,0,0.1,0,0.1c0.2,0.5,0.2,1.1,0.1,1.7h0.3&#10;&#9;&#9;c1,0.3,1.8,1.2,1.8,2.3c0,0.6-0.1,1.2-0.5,1.7c0.4,0.4,0.7,0.8,0.9,1.4c0.1,1.3-0.4,2.6-1.5,3.3c-1.2,1-2.6,2.4-3.7,3.5&#10;&#9;&#9;c-1.5,1.4-3.2,2.9-4.5,4s-3.7-2.7-3.7-3.9c-0.9,0.3-1.8-0.2-2.1-1c-0.1-0.2-0.1-0.4-0.1-0.6C267.5,200.8,267.6,196.7,267.5,192.5z"/>
	<path class="st10_scrum-board-27" d="M274.7,196.3c0.9-1.8,1.6-3.6,2.4-5.4c0.1-0.4,0.8-0.2,0.6,0.2c-0.7,1.9-1.5,3.7-2.4,5.6&#10;&#9;&#9;C275.1,197.1,274.5,196.7,274.7,196.3z"/>
	<path class="st8_scrum-board-27" d="M231,187.3c0,0,6,5.4,8.3,9.2s11.6,14,15.5,10.9c3.8-3.1,10.6-9,10.6-9s9.7,6.7,8.7,13.6c0,0-8.6,17.6-22,13.7&#10;&#9;&#9;s-16.8-9-16.8-9l-2,11.4c0,0-16.7,5.2-24.4-2.5c0,0-5.1-32.9-1.3-37.8"/>
	<path class="st13_scrum-board-27" d="M232.8,167.4c0.1,0.4,0.4,12.3-3.6,13.4s-11-1.7-12.8-5.5s0.8-15.8,7.2-16.5S231.7,163.9,232.8,167.4z"/>
	<path class="st11_scrum-board-27" d="M227.9,169.6c-2.7,1.8-1,5.2,0.1,7.4c0.8,1.7,1.2,3.6,1.2,5.4c0,1.8,0.6,3.5,1.7,4.8c0.9,1.1,1.7,2.3,2.3,3.6&#10;&#9;&#9;c-5.8,1.3-12,0.9-17.9,0.2c-4.9-0.4-9.8-1-14.6-1.9c0.1-1,0.3-2,0.7-3c1.1-2.6,3-4,2.6-7.1c-0.4-2.4-1-4.7-0.1-7.1s2.9-3.6,4.9-5&#10;&#9;&#9;c0.6-0.4,1.1-0.9,1.6-1.4l0.4-0.7c1.2-2,2-4.4,3.6-6.1c1.6-1.6,3.6-2.6,5.8-3c4.6-0.8,9.4,0.2,13.2,3c0,0,3.5,3.4,2.4,6.9&#10;&#9;&#9;S230.3,168,227.9,169.6z"/>
	<path class="st10_scrum-board-27" d="M230.9,302.1c0,0-14.1,24.4-18.7,28.1l3.9,10.8C216.2,341,232.5,318,230.9,302.1z"/>
	<path class="st10_scrum-board-27" d="M206.5,289c4.5-9.5,7-19.8,7.4-30.3c0-0.4,0.4-0.6,0.7-0.6c0.3,0,0.5,0.3,0.6,0.6c-0.4,10.7-2.9,21.3-7.5,31&#10;&#9;&#9;C207.2,290.5,206.1,289.8,206.5,289z"/>
</g>
</svg>